<svg xmlns="http://www.w3.org/2000/svg" width="64" height="64" viewBox="0 0 64 64" fill="none">
  <rect width="64" height="64" rx="20" fill="#111111"/>
  <path d="M36.2 15.5C38.9 20.22 42.73 23.8 47.5 25.55V32.15C43.86 31.85 40.5 30.54 37.4 28.24V40.95C37.4 48.27 31.42 54 24.25 54C17.08 54 11 48.27 11 40.95C11 33.63 17.08 27.9 24.25 27.9C25.06 27.9 25.87 27.96 26.65 28.12V34.92C25.89 34.67 25.09 34.54 24.25 34.54C20.75 34.54 17.9 37.39 17.9 40.95C17.9 44.51 20.75 47.36 24.25 47.36C27.75 47.36 30.6 44.47 30.6 40.95V10H36.2V15.5Z" fill="#25F4EE"/>
  <path d="M39.8 14C42.5 18.72 46.33 22.3 51.1 24.05V30.65C47.46 30.35 44.1 29.04 41 26.74V39.45C41 46.77 35.02 52.5 27.85 52.5C24.58 52.5 21.56 51.28 19.23 49.28C21 50.15 23.01 50.64 25.15 50.64C32.32 50.64 38.3 44.91 38.3 37.59V24.88C41.4 27.18 44.76 28.49 48.4 28.79V22.19C43.63 20.44 39.8 16.86 37.1 12.14V14H39.8Z" fill="#FE2C55"/>
  <path d="M38 14.5C40.7 19.22 44.53 22.8 49.3 24.55V31.15C45.66 30.85 42.3 29.54 39.2 27.24V39.95C39.2 47.27 33.22 53 26.05 53C18.88 53 12.8 47.27 12.8 39.95C12.8 32.63 18.88 26.9 26.05 26.9C26.86 26.9 27.67 26.96 28.45 27.12V33.92C27.69 33.67 26.89 33.54 26.05 33.54C22.55 33.54 19.7 36.39 19.7 39.95C19.7 43.51 22.55 46.36 26.05 46.36C29.55 46.36 32.4 43.47 32.4 39.95V9H38V14.5Z" fill="white"/>
</svg>
