<svg xmlns="http://www.w3.org/2000/svg" width="64" height="64" viewBox="0 0 64 64" fill="none">
  <rect width="64" height="64" rx="20" fill="#07C160"/>
  <path d="M30.6 15C20.33 15 12 21.94 12 30.5C12 35.5 14.86 39.94 19.35 42.84L17.75 49L24.37 45.57C26.37 46.08 28.45 46.34 30.6 46.34C40.87 46.34 49.2 39.4 49.2 30.84C49.2 22.28 40.87 15 30.6 15Z" fill="white"/>
  <path d="M43.02 24.69C35.89 24.69 30.11 29.61 30.11 35.67C30.11 41.74 35.89 46.66 43.02 46.66C44.51 46.66 45.95 46.45 47.3 46.05L52.8 48.91L51.53 43.73C54.21 41.83 55.93 38.95 55.93 35.67C55.93 29.61 50.15 24.69 43.02 24.69Z" fill="white"/>
  <circle cx="24.88" cy="29.31" r="2.08" fill="#07C160"/>
  <circle cx="35.28" cy="29.31" r="2.08" fill="#07C160"/>
  <circle cx="38.97" cy="35.67" r="1.84" fill="#07C160"/>
  <circle cx="46.96" cy="35.67" r="1.84" fill="#07C160"/>
</svg>
